<svg width="320" height="320" viewBox="0 0 320 320" fill="none" xmlns="http://www.w3.org/2000/svg">
<path opacity="0.18" d="M277.862 235.584C280.845 237.248 273.434 250.227 272.954 256.819C270.029 296.736 219.341 298.285 186.086 294.995C163.059 292.717 141.235 282.541 118.08 282.112C105.805 281.901 93.504 284.429 81.3248 283.002C68.6016 281.491 56.864 275.75 45.9968 269.229C42.5088 267.142 39.072 264.915 35.7312 262.56C35.9296 261.92 36.1984 261.299 36.5376 260.717C41.7088 251.821 66.3104 247.68 75.7504 245.05C103.488 237.274 132.294 233.325 161.107 231.878C200.038 229.901 238.995 232.397 277.862 235.578C277.862 235.578 274.88 233.92 277.862 235.584Z" fill="#0156A2"/>
<path d="M243.36 154.733C243.75 159.936 242.47 171.277 240.429 176.115C239.136 179.162 237.37 180.326 236.083 183.373C235.046 173.35 235.686 158.829 237.216 148.864C237.587 146.464 237.306 143.661 237.888 141.389C240.749 145.056 243.008 150.125 243.354 154.733H243.36Z" fill="#0156A2"/>
<path d="M213.114 181.018L216.96 242.88L223.981 243.872L227.181 196.902L230.086 243.763L237.037 243.974C237.037 243.974 240.275 196.646 239.552 193.178C238.829 189.709 239.552 178.656 239.552 178.656L213.107 181.018H213.114Z" fill="#231F20"/>
<path d="M239.379 182.112C235.917 186.963 228.794 187.123 222.752 186.79C220.678 186.675 218.502 186.541 216.672 185.53C212.083 182.982 211.52 180.154 212 175.008C210.298 159.597 211.174 143.149 213.491 141.216C214.733 140.154 216.154 139.302 217.696 138.701C218.995 138.176 220.397 137.92 221.805 137.965C222.509 137.984 223.219 137.952 223.917 137.875C226.938 137.581 230.054 136.73 232.774 137.792C234.669 138.528 236.256 139.885 237.786 141.216C240.205 143.283 242.099 178.298 239.379 182.106V182.112Z" fill="#0156A2"/>
<path d="M223.923 137.882C223.219 137.958 222.515 137.99 221.811 137.971C220.403 137.926 219.002 138.176 217.702 138.707C217.805 138.029 217.805 137.338 217.702 136.659C217.344 134.861 215.994 134.362 214.374 133.99C213.325 133.754 212.141 133.286 211.84 132.256C211.507 131.117 212.435 129.766 211.802 128.762C211.654 128.531 211.43 128.32 211.418 128.045C211.405 127.763 211.629 127.533 211.808 127.315C213.254 125.6 212.877 123.091 213.837 121.146C214.733 119.315 216.794 118.989 218.63 119.424C222.534 120.352 225.35 123.987 225.997 127.821C226.541 131.264 225.574 134.765 223.923 137.875V137.882Z" fill="#FFB4A3"/>
<path d="M212.858 119.347C213.427 121.235 215.059 122.65 216.826 123.661C217.709 124.096 218.528 124.627 219.283 125.248C221.594 127.424 221.03 131.027 220.986 134.138C220.986 136.346 221.357 138.643 222.733 140.416C225.082 143.437 229.498 144.026 233.421 144.122C233.843 144.179 234.272 144.096 234.637 143.885C234.925 143.642 235.11 143.302 235.162 142.938C235.93 139.469 232.538 136.224 232.813 132.685C232.973 130.688 234.285 128.941 234.714 126.976C235.334 124.128 233.997 121.165 232.032 118.957C231.251 118.003 230.246 117.242 229.094 116.73C227.04 115.904 224.627 116.365 222.547 115.61C221.338 115.168 220.314 114.349 219.117 113.875C215.821 112.602 211.885 116.102 212.858 119.347Z" fill="#231F20"/>
<path opacity="0.26" d="M218.278 154.054C218.278 154.054 215.002 160.749 209.632 164.672C209.632 164.672 210.163 184.486 218.662 186.118C218.662 186.118 222.669 187.814 229.894 186.592C229.894 186.592 220.544 183.872 221.114 174.752C222.106 158.778 218.278 154.054 218.278 154.054Z" fill="url(#paint0_linear_131_5248)"/>
<path d="M211.917 247.162C211.674 247.36 211.533 247.642 211.52 247.949C211.558 248.16 211.674 248.352 211.84 248.493C212.461 248.979 213.229 249.274 214.029 249.325C216.614 249.696 219.245 249.555 221.773 248.909C222.413 248.8 223.002 248.512 223.475 248.083C224.006 247.494 224.045 246.643 224.083 245.869L224.16 243.181C224.179 242.976 224.16 242.765 224.083 242.566C223.872 242.074 223.219 241.952 222.669 241.914C221.35 241.824 220.026 241.798 218.701 241.843C218.234 241.843 217.626 241.779 217.248 242.067C216.87 242.355 216.742 242.912 216.493 243.213C215.174 244.762 213.306 245.722 211.917 247.168V247.162Z" fill="#231F20"/>
<path d="M225.222 247.174C224.992 247.366 224.851 247.641 224.845 247.929C224.877 248.141 224.986 248.333 225.158 248.473C225.76 248.947 226.496 249.222 227.264 249.273C229.76 249.632 232.307 249.497 234.752 248.877C235.366 248.768 235.93 248.493 236.378 248.077C236.813 247.449 237.018 246.694 236.947 245.945L237.024 243.341C237.043 243.142 237.024 242.937 236.947 242.745C236.742 242.265 236.109 242.15 235.578 242.112C234.298 242.022 233.011 241.997 231.725 242.041C231.27 242.041 230.688 241.984 230.323 242.259C229.958 242.534 229.837 243.072 229.594 243.347C228.378 244.845 226.566 245.779 225.229 247.168L225.222 247.174Z" fill="#231F20"/>
<path d="M205.715 157.408C204.499 162.125 203.283 167.11 204.71 171.77C205.434 173.83 206.413 175.795 207.622 177.632L213.638 187.648C213.779 187.936 213.99 188.192 214.253 188.39C214.97 188.749 215.853 188.512 216.275 187.846C216.653 187.187 216.838 186.445 216.806 185.696C217.178 177.926 213.504 175.456 215.008 167.808C215.578 164.832 219.034 156.518 219.36 153.504C219.686 150.49 220.774 144.614 218.79 142.259C212.205 134.47 206.688 153.619 205.702 157.408H205.715Z" fill="#0156A2"/>
<path d="M217.203 191.392C218.093 191.354 218.714 190.528 219.021 189.728C219.949 187.149 219.117 184.288 216.922 182.554C216.839 182.477 216.73 182.426 216.608 182.413C216.416 182.413 216.295 182.605 216.211 182.765C215.45 184.237 213.799 186.31 214.157 188.019C214.394 189.165 215.815 191.456 217.197 191.392H217.203Z" fill="#FFB4A3"/>
<path opacity="0.24" d="M65.3185 121.99C56.7617 153.869 53.6897 186.874 56.2049 219.699C56.4481 222.874 57.0049 226.483 59.7697 228.243C61.2609 229.184 63.1169 229.389 64.9025 229.478C85.4529 230.566 104.934 221.504 123.347 212.666C111.994 192.723 101.472 172.365 91.7889 151.584C87.0529 141.402 98.5921 116.403 94.2849 106.042C93.2481 103.552 78.6433 104.749 74.6241 105.306C69.3441 106.035 65.9393 119.642 65.3121 121.984L65.3185 121.99Z" fill="#0156A2"/>
<path d="M209.914 181.536L119.443 227.27L117.811 228.102C117.811 228.102 50.7393 170.387 74.6305 105.312L175.149 95.5135C175.149 95.5967 175.149 95.6799 175.149 95.7631C174.925 99.8847 172.615 153.6 207.52 179.802C208.295 180.41 209.094 180.986 209.92 181.536H209.914Z" fill="#0156A2"/>
<path d="M209.914 181.536L195.418 188.864L119.443 227.27C111.507 220.058 54.944 165.843 77.184 105.306L175.123 95.7697C174.982 98.5217 173.901 123.354 183.578 147.373C188.39 159.322 195.878 171.085 207.494 179.808C208.282 180.41 209.088 180.979 209.914 181.536Z" fill="url(#paint1_linear_131_5248)"/>
<path opacity="0.26" d="M147.686 117.011C149.414 117.83 151.334 118.182 153.254 118.035C155.187 117.869 156.934 116.864 158.01 115.315C158.355 114.822 158.515 114.234 158.464 113.638C158.394 113.293 158.259 112.96 158.08 112.653C155.814 108.422 152.518 104.806 149.088 101.389C148.198 100.397 147.117 99.5775 145.901 98.9759C144.109 98.2271 140.083 98.1695 138.714 99.8271C137.53 101.267 138.266 104.531 138.656 106.131C139.757 110.784 143.091 115.014 147.686 117.018V117.011Z" fill="url(#paint2_linear_131_5248)"/>
<path d="M160.289 114.902C164.554 112.217 164.451 104.383 160.058 97.4038C155.665 90.4251 148.646 86.9445 144.38 89.6297C140.114 92.3148 140.218 100.149 144.611 107.128C149.004 114.106 156.023 117.587 160.289 114.902Z" fill="#0156A2"/>
<path d="M160.289 114.902C164.554 112.217 164.451 104.383 160.058 97.4038C155.665 90.4251 148.646 86.9445 144.38 89.6297C140.114 92.3148 140.218 100.149 144.611 107.128C149.004 114.106 156.023 117.587 160.289 114.902Z" fill="url(#paint3_linear_131_5248)"/>
<path d="M161.324 114.933C165.257 112.496 164.913 104.821 160.555 97.7905C156.198 90.7603 149.478 87.0371 145.545 89.4746C141.612 91.912 141.957 99.5871 146.314 106.617C150.671 113.648 157.391 117.371 161.324 114.933Z" fill="url(#paint4_linear_131_5248)"/>
<path d="M149.152 92.9856L165.075 83.3024L172.551 92.6656L158.087 106.278C158.087 106.278 146.874 108.435 149.152 92.9792V92.9856Z" fill="#0156A2"/>
<path d="M149.152 92.9856L165.075 83.3024L172.551 92.6656L158.087 106.278C158.087 106.278 146.874 108.435 149.152 92.9792V92.9856Z" fill="url(#paint5_linear_131_5248)"/>
<path d="M177.946 94.592C177.709 94.816 177.446 95.008 177.158 95.168C173.837 97.0112 168.563 94.1824 165.357 88.864C162.157 83.5456 162.259 77.7472 165.581 75.8912C165.818 75.7504 166.067 75.6416 166.33 75.5584C169.651 74.4704 174.419 77.2608 177.382 82.1952C180.301 87.0464 180.48 92.3136 177.952 94.592H177.946Z" fill="#0156A2"/>
<g opacity="0.26">
<path d="M177.946 94.592C174.618 95.68 169.869 92.8704 166.912 87.9552C163.955 83.04 163.814 77.8624 166.342 75.5584C169.664 74.4704 174.432 77.2608 177.395 82.1952C180.294 87.0464 180.48 92.3136 177.946 94.592Z" fill="url(#paint6_linear_131_5248)"/>
</g>
<path d="M97.0753 133.734L156.525 125.402C157.92 125.203 159.213 126.131 159.418 127.475C159.622 128.813 158.656 130.061 157.261 130.253L97.8113 138.586C96.4161 138.784 95.1233 137.856 94.9185 136.512C94.7137 135.174 95.6801 133.926 97.0753 133.734Z" fill="url(#paint7_linear_131_5248)"/>
<path d="M103.341 159.328L160.806 142.477C162.15 142.08 163.578 142.81 163.987 144.102C164.397 145.395 163.642 146.765 162.291 147.162L104.826 164.013C103.482 164.41 102.054 163.68 101.645 162.387C101.235 161.094 101.99 159.725 103.341 159.328Z" fill="url(#paint8_linear_131_5248)"/>
<path d="M116.928 181.76L170.829 156.262C172.09 155.667 173.619 156.166 174.24 157.376C174.861 158.592 174.342 160.058 173.075 160.659L119.174 186.157C117.914 186.752 116.384 186.253 115.763 185.043C115.142 183.827 115.661 182.362 116.928 181.76Z" fill="url(#paint9_linear_131_5248)"/>
<path opacity="0.26" d="M209.914 181.536L195.418 188.864C191.392 187.014 187.789 184.41 184.826 181.203C181.811 177.978 179.853 173.51 180.858 169.254C181.363 167.046 182.631 165.043 183.123 162.835C183.731 160.115 183.168 157.306 182.221 154.669C181.395 152.365 180.467 149.37 182.458 147.866C182.784 147.597 183.175 147.405 183.591 147.322C188.403 159.27 195.891 171.034 207.507 179.757C208.288 180.397 209.088 180.992 209.907 181.542L209.914 181.536Z" fill="url(#paint10_linear_131_5248)"/>
<defs>
<linearGradient id="paint0_linear_131_5248" x1="230.394" y1="184.448" x2="200.173" y2="150.47" gradientUnits="userSpaceOnUse">
<stop stop-color="#010101" stop-opacity="0"/>
<stop offset="0.95" stop-color="#010101"/>
</linearGradient>
<linearGradient id="paint1_linear_131_5248" x1="202.509" y1="85.5873" x2="-67.4048" y2="350.349" gradientUnits="userSpaceOnUse">
<stop stop-color="white" stop-opacity="0"/>
<stop offset="0.23" stop-color="white" stop-opacity="0.23"/>
<stop offset="0.95" stop-color="white"/>
</linearGradient>
<linearGradient id="paint2_linear_131_5248" x1="137.28" y1="124.922" x2="173.286" y2="68.4671" gradientUnits="userSpaceOnUse">
<stop stop-color="#010101" stop-opacity="0"/>
<stop offset="0.95" stop-color="#010101"/>
</linearGradient>
<linearGradient id="paint3_linear_131_5248" x1="164.866" y1="95.0029" x2="78.044" y2="145.518" gradientUnits="userSpaceOnUse">
<stop stop-color="#010101" stop-opacity="0"/>
<stop offset="0.95" stop-color="#010101"/>
</linearGradient>
<linearGradient id="paint4_linear_131_5248" x1="160.75" y1="102.201" x2="89.6724" y2="175.197" gradientUnits="userSpaceOnUse">
<stop stop-color="#010101" stop-opacity="0"/>
<stop offset="0.95" stop-color="#010101"/>
</linearGradient>
<linearGradient id="paint5_linear_131_5248" x1="156.896" y1="92.48" x2="166.042" y2="101.997" gradientUnits="userSpaceOnUse">
<stop stop-color="#010101" stop-opacity="0"/>
<stop offset="0.95" stop-color="#010101"/>
</linearGradient>
<linearGradient id="paint6_linear_131_5248" x1="164.557" y1="85.0752" x2="179.718" y2="85.0752" gradientUnits="userSpaceOnUse">
<stop stop-color="#010101" stop-opacity="0"/>
<stop offset="0.95" stop-color="#010101"/>
</linearGradient>
<linearGradient id="paint7_linear_131_5248" x1="147.392" y1="105.396" x2="64.9012" y2="213.878" gradientUnits="userSpaceOnUse">
<stop stop-color="white" stop-opacity="0"/>
<stop offset="0.23" stop-color="white" stop-opacity="0.23"/>
<stop offset="0.95" stop-color="white"/>
</linearGradient>
<linearGradient id="paint8_linear_131_5248" x1="148.68" y1="124.126" x2="83.9835" y2="242.894" gradientUnits="userSpaceOnUse">
<stop stop-color="white" stop-opacity="0"/>
<stop offset="0.23" stop-color="white" stop-opacity="0.23"/>
<stop offset="0.95" stop-color="white"/>
</linearGradient>
<linearGradient id="paint9_linear_131_5248" x1="155.899" y1="140.192" x2="111.48" y2="266.714" gradientUnits="userSpaceOnUse">
<stop stop-color="white" stop-opacity="0"/>
<stop offset="0.23" stop-color="white" stop-opacity="0.23"/>
<stop offset="0.95" stop-color="white"/>
</linearGradient>
<linearGradient id="paint10_linear_131_5248" x1="157.991" y1="153.632" x2="279.834" y2="209.523" gradientUnits="userSpaceOnUse">
<stop stop-color="#010101" stop-opacity="0"/>
<stop offset="0.95" stop-color="#010101"/>
</linearGradient>
</defs>
</svg>
