<svg width="20" height="20" viewBox="0 0 20 20" fill="none" xmlns="http://www.w3.org/2000/svg">
<path d="M13.125 9.75C13.4375 9.75 13.7031 9.64063 13.9219 9.42188C14.1406 9.20313 14.25 8.9375 14.25 8.625C14.25 8.3125 14.1406 8.04688 13.9219 7.82812C13.7031 7.60938 13.4375 7.5 13.125 7.5C12.8125 7.5 12.5469 7.60938 12.3281 7.82812C12.1094 8.04688 12 8.3125 12 8.625C12 8.9375 12.1094 9.20313 12.3281 9.42188C12.5469 9.64063 12.8125 9.75 13.125 9.75ZM7.875 9.75C8.1875 9.75 8.45312 9.64063 8.67188 9.42188C8.89063 9.20313 9 8.9375 9 8.625C9 8.3125 8.89063 8.04688 8.67188 7.82812C8.45312 7.60938 8.1875 7.5 7.875 7.5C7.5625 7.5 7.29688 7.60938 7.07812 7.82812C6.85938 8.04688 6.75 8.3125 6.75 8.625C6.75 8.9375 6.85938 9.20313 7.07812 9.42188C7.29688 9.64063 7.5625 9.75 7.875 9.75ZM10.5 14.625C11.35 14.625 12.1219 14.3844 12.8156 13.9031C13.5094 13.4219 14.0125 12.7875 14.325 12H13.0875C12.8125 12.4625 12.4469 12.8281 11.9906 13.0969C11.5344 13.3656 11.0375 13.5 10.5 13.5C9.9625 13.5 9.46563 13.3656 9.00938 13.0969C8.55313 12.8281 8.1875 12.4625 7.9125 12H6.675C6.9875 12.7875 7.49063 13.4219 8.18438 13.9031C8.87813 14.3844 9.65 14.625 10.5 14.625ZM10.5 18C9.4625 18 8.4875 17.8031 7.575 17.4094C6.6625 17.0156 5.86875 16.4813 5.19375 15.8063C4.51875 15.1313 3.98438 14.3375 3.59063 13.425C3.19688 12.5125 3 11.5375 3 10.5C3 9.4625 3.19688 8.4875 3.59063 7.575C3.98438 6.6625 4.51875 5.86875 5.19375 5.19375C5.86875 4.51875 6.6625 3.98438 7.575 3.59063C8.4875 3.19688 9.4625 3 10.5 3C11.5375 3 12.5125 3.19688 13.425 3.59063C14.3375 3.98438 15.1313 4.51875 15.8063 5.19375C16.4813 5.86875 17.0156 6.6625 17.4094 7.575C17.8031 8.4875 18 9.4625 18 10.5C18 11.5375 17.8031 12.5125 17.4094 13.425C17.0156 14.3375 16.4813 15.1313 15.8063 15.8063C15.1313 16.4813 14.3375 17.0156 13.425 17.4094C12.5125 17.8031 11.5375 18 10.5 18ZM10.5 16.5C12.175 16.5 13.5938 15.9188 14.7563 14.7563C15.9188 13.5938 16.5 12.175 16.5 10.5C16.5 8.825 15.9188 7.40625 14.7563 6.24375C13.5938 5.08125 12.175 4.5 10.5 4.5C8.825 4.5 7.40625 5.08125 6.24375 6.24375C5.08125 7.40625 4.5 8.825 4.5 10.5C4.5 12.175 5.08125 13.5938 6.24375 14.7563C7.40625 15.9188 8.825 16.5 10.5 16.5Z" fill="#69707D"/>
</svg>
