<svg width="18" height="12" viewBox="0 0 18 12" fill="none" xmlns="http://www.w3.org/2000/svg">
<path d="M6.50008 11.8333C4.87508 11.8333 3.49647 11.2672 2.36425 10.135C1.23258 9.00334 0.666748 7.625 0.666748 6C0.666748 4.375 1.23258 2.99639 2.36425 1.86417C3.49647 0.732505 4.87508 0.166672 6.50008 0.166672C8.12508 0.166672 9.50369 0.732505 10.6359 1.86417C11.7676 2.99639 12.3334 4.375 12.3334 6C12.3334 7.625 11.7676 9.00334 10.6359 10.135C9.50369 11.2672 8.12508 11.8333 6.50008 11.8333ZM13.5834 11.4375C13.264 11.5486 12.9756 11.5383 12.7184 11.4067C12.4617 11.2745 12.3334 11.0278 12.3334 10.6667C12.3334 10.5139 12.3856 10.3681 12.4901 10.2292C12.594 10.0903 12.7223 9.99306 12.8751 9.9375C13.7084 9.65973 14.382 9.15973 14.8959 8.4375C15.4098 7.71528 15.6667 6.90278 15.6667 6C15.6667 5.09723 15.4098 4.28473 14.8959 3.5625C14.382 2.84028 13.7084 2.34028 12.8751 2.06251C12.7223 2.00695 12.594 1.90973 12.4901 1.77084C12.3856 1.63195 12.3334 1.48612 12.3334 1.33334C12.3334 0.986116 12.4584 0.743061 12.7084 0.604172C12.9584 0.465283 13.2431 0.451394 13.5626 0.562505C14.6876 0.965283 15.5973 1.66306 16.2917 2.65584C16.9862 3.64917 17.3334 4.76389 17.3334 6C17.3334 7.23612 16.9862 8.34723 16.2917 9.33334C15.5973 10.3194 14.6945 11.0208 13.5834 11.4375ZM6.50008 10.1667C7.65286 10.1667 8.63564 9.76028 9.44841 8.9475C10.2606 8.13528 10.6667 7.15278 10.6667 6C10.6667 4.84723 10.2606 3.86445 9.44841 3.05167C8.63564 2.23945 7.65286 1.83334 6.50008 1.83334C5.3473 1.83334 4.3648 2.23945 3.55258 3.05167C2.7398 3.86445 2.33341 4.84723 2.33341 6C2.33341 7.15278 2.7398 8.13528 3.55258 8.9475C4.3648 9.76028 5.3473 10.1667 6.50008 10.1667Z" fill="#0156A2"/>
</svg>
