<svg width="400" height="400" viewBox="0 0 400 400" fill="none" xmlns="http://www.w3.org/2000/svg">
<path opacity="0.25" d="M90.672 151.376C64.08 156.568 6.81599 169.248 26.264 232.52C28.976 241.36 46.488 271.568 48.432 280.608C50.592 290.704 46.104 301.352 48.296 311.448C52.248 329.592 74.2 336.336 92.56 339.152C113.792 342.408 135.68 344.864 156.576 340C168.104 337.32 179.024 332.488 190.496 329.568C237.576 317.704 288.84 339.264 335.104 324.608C348.8 320.28 362.488 311.648 366.808 297.944C369.592 289.024 368.008 279.392 367.96 270.032C367.824 246.256 370.904 214.64 378.448 192.096C385.992 169.552 420.752 80.816 347.848 66.28C241.928 45.16 275.416 115.312 90.68 151.376H90.672Z" fill="#0156A2"/>
<path opacity="0.25" d="M89.3439 311.552C72.3119 315.232 54.3039 320.096 42.7439 333.112C40.3599 335.792 38.2159 339 38.1599 342.584C38.0159 351.112 48.5519 355.104 57.0079 356.248C83.1199 359.728 109.584 358.632 135.904 357.552C152.552 356.856 169.248 356.16 185.72 353.72C218.088 348.848 250.192 337.096 282.768 340.648C293.496 341.816 303.984 344.64 314.72 345.72C331.976 347.424 349.376 344.592 365.2 337.512C370.76 335.008 376.64 331.336 378.104 325.4C379.568 319.464 375.976 313.392 371.04 309.952C366.104 306.512 360.024 305.192 354.136 303.952C339.952 300.968 327.704 295.672 313.176 294.752C294.8 293.6 276.384 293.064 257.944 293.152C221.432 293.336 184.968 295.96 148.8 301.008C128.856 303.792 109.04 307.304 89.3519 311.552H89.3439Z" fill="#0156A2"/>
<g opacity="0.24">
<path d="M74.7441 351.448C84.9441 352.376 95.1921 352.776 105.432 352.84C114.296 352.88 123.44 352.608 131.496 348.928C135.912 346.912 139.896 343.904 144.536 342.472C148.904 341.12 153.576 341.24 158.088 340.632C162.6 340.024 167.376 338.44 170.024 334.72L152.72 328.968C150.528 328.168 148.272 327.56 145.976 327.16C143.04 326.84 140.08 326.872 137.152 327.248C126.048 328.32 115.024 330.096 104.152 332.56C98.0561 333.952 94.8961 337.568 89.6081 339.888C85.3521 341.76 82.8001 340.288 78.4801 340.168C68.4321 339.896 61.2561 350.2 74.7441 351.432V351.448Z" fill="#231F20"/>
<path d="M169.792 306.192C167.248 306.232 163.824 307.024 163.856 309.576C173.04 312.424 182.92 309.28 192.528 309.616C205.448 310.072 217.216 316.784 228.384 323.32C223.984 323.216 219.864 325.488 217.616 329.272C242.784 331.928 268 325.512 293.296 325.096C319.776 324.696 346.312 330.912 372.584 327.648C372.128 325.512 369.552 324.696 367.392 324.376C356.344 322.704 345.08 323.464 333.936 322.752C322.784 322.032 311.24 319.616 302.552 312.6C311.576 310.456 320.296 307.184 328.504 302.864C323.288 300.408 317.2 301.16 311.48 301.848C273.496 306.44 235.064 305.92 197.216 300.32C195.912 302.928 199.896 304.872 202.776 305.096L266.2 310.128C273.464 310.704 281.328 311.52 286.672 316.488C258.624 321.872 220.08 316.304 193.656 305.4C189.32 303.608 196.368 298.552 191.688 299.04C186.256 299.608 176.304 306.072 169.776 306.192H169.792Z" fill="#231F20"/>
</g>
<path d="M325.728 124.664H313.4V301.88H325.728V124.664Z" fill="#0156A2"/>
<path d="M325.728 162.392C325.728 162 370.048 177.536 370.048 177.536L371.104 192.76L324.752 175.984L324.632 162.384H325.728V162.392Z" fill="#0156A2"/>
<path d="M324.624 163.696C324.624 163.304 370.048 179.656 370.048 179.656L371.104 192.112L324.752 175.336L324.624 163.696Z" fill="url(#paint0_linear_24_932)"/>
<path d="M322.256 165.424C322.256 165.032 366.568 180.568 366.568 180.568L367.624 194.816L321.272 178.04L321.136 165.392L322.264 165.424H322.256Z" fill="#0156A2"/>
<path d="M321.152 166.392C321.152 166 366.568 182.352 366.568 182.352L367.624 194.808L321.272 178.032L321.152 166.392Z" fill="url(#paint1_linear_24_932)"/>
<path d="M374.792 139.736H362.464V322.352H374.792V139.736Z" fill="#0156A2"/>
<path d="M376.2 139.736H363.872V322.352H376.2V139.736Z" fill="url(#paint2_linear_24_932)"/>
<path d="M369.12 139.736H367.384V322.352H369.12V139.736Z" fill="#0156A2"/>
<path d="M367.48 236.08V238.368L367.272 248.528L321.464 233.176L321.384 233.144L321.976 221.168L367.48 236.08Z" fill="#0156A2"/>
<path d="M367.272 237.848V249.616L321.464 233.176L321.976 222.912L367.272 237.848Z" fill="url(#paint3_linear_24_932)"/>
<path d="M197.376 120.896H185.048V301.88H197.376V120.896Z" fill="#0156A2"/>
<path d="M198.784 120.896H186.456V301.88H198.784V120.896Z" fill="url(#paint4_linear_24_932)"/>
<path d="M314.968 220.992H192.624V232.52H314.968V220.992Z" fill="#0156A2"/>
<path d="M314.968 220.992H192.624V232.52H314.968V220.992Z" fill="url(#paint5_linear_24_932)"/>
<path d="M313.392 220.992H197.256V222.568H313.392V220.992Z" fill="url(#paint6_linear_24_932)"/>
<path d="M314.968 161.768H192.624V173.296H314.968V161.768Z" fill="#0156A2"/>
<path d="M314.968 161.768H192.624V173.296H314.968V161.768Z" fill="url(#paint7_linear_24_932)"/>
<path d="M316.568 164.808H194.224V176.336H316.568V164.808Z" fill="#0156A2"/>
<path d="M314.968 163.208H192.624V176.336H314.968V163.208Z" fill="url(#paint8_linear_24_932)"/>
<path d="M234.344 178.576L197.376 164.808V167.816L234.344 181.568V178.576Z" fill="#0156A2"/>
<path d="M234.344 178.576L197.376 164.808V167.816L234.344 181.568V178.576Z" fill="url(#paint9_linear_24_932)"/>
<path d="M313.4 164.808H197.376V166.008H313.4V164.808Z" fill="#0156A2"/>
<path d="M313.4 160.96H197.376V162.16H313.4V160.96Z" fill="#0156A2"/>
<path d="M197.376 120.896H189.968V301.88H197.376V120.896Z" fill="#0156A2"/>
<path d="M197.376 120.896H189.968V301.88H197.376V120.896Z" fill="url(#paint10_linear_24_932)"/>
<path d="M367.272 239.152H244.928V250.68H367.272V239.152Z" fill="#0156A2"/>
<path d="M367.272 240.744H244.928V250.672H367.272V240.744Z" fill="url(#paint11_linear_24_932)"/>
<path d="M189.968 235.272L244.088 251.84L244.048 238.04L189.968 221.432V235.272Z" fill="#0156A2"/>
<path d="M244.088 251.84H244.08L189.968 235.272V221.432L244.048 238.04L244.088 251.84Z" fill="url(#paint12_linear_24_932)"/>
<path d="M244.08 251.84L189.968 235.272V223.088L244.048 239.696L244.08 251.84Z" fill="url(#paint13_linear_24_932)"/>
<path d="M367.272 179.928H244.928V191.096H367.272V179.928Z" fill="#0156A2"/>
<path d="M367.272 181.568H244.928V191.096H367.272V181.568Z" fill="url(#paint14_linear_24_932)"/>
<path d="M367.272 183.2H244.928V195.968H367.272V183.2Z" fill="#0156A2"/>
<path d="M367.272 184.84H244.928V195.912H367.272V184.84Z" fill="url(#paint15_linear_24_932)"/>
<path d="M189.968 221.432H202.304L234.344 230.16V235.064L189.968 221.432Z" fill="url(#paint16_linear_24_932)"/>
<path d="M191.704 120.896H189.968V301.88H191.704V120.896Z" fill="#0156A2"/>
<path d="M246.672 139.568H234.344V322.184H246.672V139.568Z" fill="#0156A2"/>
<path d="M248.08 139.568H235.752V322.184H248.08V139.568Z" fill="url(#paint17_linear_24_932)"/>
<path d="M241 139.568H239.264V322.184H241V139.568Z" fill="#0156A2"/>
<path d="M191.704 165.696L234.344 181.568V195.912L191.704 177.4V165.696Z" fill="#0156A2"/>
<path d="M191.704 167.536L234.344 183.416V195.912L191.704 177.4V167.536Z" fill="url(#paint18_linear_24_932)"/>
<path d="M197.376 164.808L234.344 178.576V180.216L197.376 166.496V164.808Z" fill="#0156A2"/>
<path d="M325.728 45.16H313.4V153.528H325.728V45.16Z" fill="#0156A2"/>
<path d="M325.728 45.16H318.632V222.376H325.728V45.16Z" fill="url(#paint19_linear_24_932)"/>
<path d="M325.728 82.872C325.728 82.488 370.048 98.016 370.048 98.016L371.104 113.216L324.752 96.44L324.632 82.84L325.728 82.864V82.872Z" fill="#0156A2"/>
<path d="M324.624 84.184C324.624 83.8 370.048 100.184 370.048 100.184L371.104 112.616L324.728 95.848L324.624 84.192V84.184Z" fill="url(#paint20_linear_24_932)"/>
<path d="M322.256 85.912C322.256 85.52 366.568 101.056 366.568 101.056L367.624 115.312L321.272 98.536L321.152 85.912H322.256Z" fill="#0156A2"/>
<path d="M321.152 86.888C321.152 86.496 366.568 102.888 366.568 102.888L367.624 115.32L321.272 98.544L321.152 86.896V86.888Z" fill="url(#paint21_linear_24_932)"/>
<path d="M374.792 60.232H362.464V242.848H374.792V60.232Z" fill="#0156A2"/>
<path d="M376.2 60.232H363.872V242.848H376.2V60.232Z" fill="url(#paint22_linear_24_932)"/>
<path d="M369.12 60.232H367.384V242.848H369.12V60.232Z" fill="#0156A2"/>
<path d="M197.376 41.392H185.048V222.376H197.376V41.392Z" fill="#0156A2"/>
<path d="M198.784 41.392H186.456V222.376H198.784V41.392Z" fill="url(#paint23_linear_24_932)"/>
<path d="M314.968 82.264H192.624V93.792H314.968V82.264Z" fill="#0156A2"/>
<path d="M314.968 82.264H192.624V93.792H314.968V82.264Z" fill="url(#paint24_linear_24_932)"/>
<path d="M316.568 85.304H194.224V96.832H316.568V85.304Z" fill="#0156A2"/>
<path d="M314.968 83.704H192.624V96.832H314.968V83.704Z" fill="url(#paint25_linear_24_932)"/>
<path d="M234.344 99.064L197.376 85.304V88.296L234.344 102.064V99.064Z" fill="#0156A2"/>
<path d="M234.344 99.064L197.376 85.304V88.296L234.344 102.064V99.064Z" fill="url(#paint26_linear_24_932)"/>
<path d="M313.4 85.304H197.376V86.504H313.4V85.304Z" fill="#0156A2"/>
<path d="M313.4 81.456H197.376V82.656H313.4V81.456Z" fill="#0156A2"/>
<path d="M197.376 41.392H189.968V222.376H197.376V41.392Z" fill="#0156A2"/>
<path d="M197.376 41.392H189.968V222.376H197.376V41.392Z" fill="url(#paint27_linear_24_932)"/>
<path d="M367.272 100.424H244.928V111.592H367.272V100.424Z" fill="#0156A2"/>
<path d="M367.272 102.064H244.928V111.592H367.272V102.064Z" fill="url(#paint28_linear_24_932)"/>
<path d="M367.272 103.688H244.928V116.456H367.272V103.688Z" fill="#0156A2"/>
<path d="M367.272 105.328H244.928V116.4H367.272V105.328Z" fill="url(#paint29_linear_24_932)"/>
<path d="M191.704 41.392H189.968V222.376H191.704V41.392Z" fill="#0156A2"/>
<path d="M246.672 60.064H234.344V242.68H246.672V60.064Z" fill="#0156A2"/>
<path d="M248.08 60.064H235.752V242.68H248.08V60.064Z" fill="url(#paint30_linear_24_932)"/>
<path d="M241 60.064H239.264V242.68H241V60.064Z" fill="#0156A2"/>
<path d="M191.704 86.192L234.344 102.064V116.4L191.704 97.888V86.192Z" fill="#0156A2"/>
<path d="M191.704 88.032L234.344 103.904V116.4L191.704 97.888V88.032Z" fill="url(#paint31_linear_24_932)"/>
<path d="M197.376 85.304L234.344 99.064V100.696L197.376 86.976V85.304Z" fill="#0156A2"/>
<path d="M104.44 172.928C105.344 174.072 105.768 175.52 105.624 176.968C105.552 177.6 105.384 178.224 105.352 178.856C105.288 179.496 105.488 180.136 105.912 180.624C106.288 180.984 106.88 181.216 106.968 181.72C107.104 182.416 106.24 182.824 105.728 183.328C105.28 183.888 104.968 184.544 104.824 185.248C104.512 186.272 104.08 187.264 103.544 188.2C103.08 189.184 102.28 189.968 101.288 190.408C100.592 190.656 99.7441 190.592 99.0801 190.976C97.5201 191.872 97.8881 194.456 96.4481 195.56C96.0321 195.84 95.5521 196.008 95.0561 196.064C93.9121 196.24 92.7441 196.08 91.6881 195.608C91.2161 195.424 90.8001 195.104 90.5041 194.688C90.2241 194.128 90.1281 193.496 90.2161 192.872C90.3361 190.784 90.6161 188.656 90.5521 186.552C90.5201 185.424 90.3841 184.296 90.4001 183.168C90.4321 179.784 91.9601 176.592 94.5761 174.44C97.2481 172.328 100.832 171.76 104.024 172.936L103.408 172.24" fill="#FFB4A3"/>
<path d="M93.2961 178.664C92.3201 178.92 91.7121 179.888 91.9041 180.872C92.1521 181.832 93.0001 182.512 93.9921 182.552L91.7761 186.816C91.5921 187.176 91.2721 187.608 90.8801 187.512C90.4881 187.416 90.3841 186.872 90.3121 186.448C90.0721 185.104 89.0161 184.08 88.4241 182.856C87.5441 181.072 87.7281 178.968 87.8801 176.984C88.0401 175.216 88.2241 173.368 89.1841 171.872C89.7441 171.064 90.4401 170.36 91.2321 169.784C92.5601 168.656 94.1601 167.912 95.8721 167.624C97.3201 167.52 98.7681 167.704 100.144 168.152C101.528 168.448 102.824 169.048 103.944 169.912C105.064 170.808 105.568 172.28 105.224 173.672C103.136 173.952 99.0801 173.672 97.4481 175.192C96.0561 176.504 97.0001 179.368 95.2001 180.264C95.1281 179.064 94.3121 178.808 93.3121 178.656H93.2961V178.664Z" fill="#231F20"/>
<path d="M111.112 171.2C110.472 170.816 107.632 169.632 106.984 169.248C106.856 166.992 104.432 164.056 101.104 162.808C98.6161 161.912 93.4961 161.912 89.4321 164.96C84.8241 168.44 85.4641 174.264 85.4161 175.792C85.3921 176.864 86.2321 177.752 87.3041 177.784C87.5841 177.784 87.8641 177.736 88.1281 177.624C89.3601 177.064 90.6241 176.584 91.9121 176.176L97.4721 174.784C101.4 173.744 107.16 172.224 111.104 171.208H111.112V171.2Z" fill="#0156A2"/>
<path d="M110.256 170.832L93.8081 175.088L99.2401 172.2L100.728 171.416L103.24 170.544L106.072 169.568L106.984 169.248L110.256 170.832Z" fill="url(#paint32_linear_24_932)"/>
<path d="M93.8081 175.64L88.8961 184.68L87.7681 181.928L89.3201 179.208L87.5281 177.912L89.4321 177.048L90.6721 178.04L91.1761 176.4L93.8081 175.64Z" fill="#231F20"/>
<path d="M86.104 177.304C86.104 177.304 86.88 177.504 88.888 176.608C90.496 175.96 92.152 175.44 93.84 175.064L100.752 171.392C100.752 171.392 91.96 166.968 86.776 171.984C86.752 172 84.728 174.776 86.112 177.304H86.104Z" fill="#0156A2"/>
<path d="M86 170.016C86 170.016 89.76 163.552 95.792 163.576C98.64 163.6 101.376 164.632 103.536 166.488C103.536 166.488 93.176 159.968 86 170.016Z" fill="url(#paint33_linear_24_932)"/>
<path d="M85.864 176.76C85.864 176.76 85.936 177.752 87.592 177.104C89.256 176.456 94.264 175.016 94.264 175.016L96.576 173.624C96.576 173.624 86.776 177.384 85.856 176.752H85.864V176.76Z" fill="url(#paint34_linear_24_932)"/>
<path d="M88.5362 332.536C99.8882 310.792 106.704 286.968 108.56 262.512C108.728 260.288 108.816 257.896 107.64 255.992C105.392 252.344 100.104 252.56 95.8802 253.208C93.9602 253.512 91.7922 253.992 90.8322 255.68C90.1362 256.928 82.8162 261.432 83.4802 262.696C88.3522 271.88 90.3202 283.664 87.8882 295.912C85.4962 307.968 81.2002 316.872 79.4722 328.904C80.4562 328.984 88.1602 333.24 88.5362 332.528V332.536Z" fill="#231F20"/>
<path d="M136.112 208.936C135.416 213.648 133.48 218.328 129.912 221.456C126.344 224.584 121.016 225.976 116.624 224.12C112.024 222.176 109.408 217.4 107.136 212.992C107.088 224.168 111.576 235.248 110.016 246.288C109.904 247.904 109.32 249.448 108.352 250.744C107.152 252.136 105.304 252.712 103.544 253.2C97.4001 254.872 91.1121 255.984 84.7681 256.52C84.1521 256.568 83.5521 256.624 82.9361 256.656C82.2001 253.008 81.8961 248.264 81.8401 242.472V240.72C81.8401 236.072 81.9521 230.816 82.1281 224.992V223.304C82.1281 222.976 82.1281 222.472 82.1681 221.912V218.528C82.2881 214.912 82.4081 211.104 82.5121 207.112C82.5121 206.6 82.5121 206.088 82.5441 205.568C82.5601 204.152 82.7281 202.736 83.0481 201.352C83.5441 199.048 84.9121 197.032 86.8641 195.72C88.3281 194.76 89.9041 194 91.5681 193.456C98.2161 191.128 106.128 192.52 110.88 197.528C111.696 198.4 112.432 199.344 113.072 200.36C114.128 201.976 115.008 203.696 115.92 205.408C116.84 207.232 117.912 208.968 119.128 210.6C120.224 211.992 121.824 213.32 123.56 213.016C126.048 212.568 126.728 209.368 126.76 206.864C126.808 202.704 126.576 198.536 126.064 194.408C129.248 194.12 132.448 194.232 135.6 194.752C135.992 197.304 136.256 199.872 136.384 202.448C136.488 204.616 136.4 206.792 136.112 208.952V208.936Z" fill="#0156A2"/>
<path d="M96.2561 229.144C94.3921 232.184 91.8561 234.752 89.3041 237.208C88.1041 238.352 88.8001 252.192 87.5601 253.312C87.1041 253.712 86.0001 255.08 84.7761 256.512C84.1601 256.56 83.5601 256.616 82.9441 256.648C82.2081 253 81.9041 248.256 81.8481 242.464V240.712C81.8481 236.064 81.9601 230.808 82.1361 224.984V223.296C82.1361 222.968 82.1361 222.464 82.1761 221.904V218.52C83.0481 217.76 83.6801 220.944 83.8401 221.36C83.8961 221.496 83.9681 221.624 84.0721 221.736C84.2161 221.848 84.3921 221.904 84.5761 221.88C85.4001 221.744 86.1521 221.304 86.6641 220.64C88.0241 219.28 89.3201 217.856 90.5521 216.368L98.7761 218.984C99.3121 222.52 98.1441 226.096 96.2721 229.136H96.2561V229.144Z" fill="url(#paint35_linear_24_932)"/>
<path d="M97.7762 218.768C95.3602 228.672 88.1762 238.24 81.8402 240.72C79.2482 241.728 76.8002 241.552 74.8882 239.728C71.4082 236.616 70.7122 225.12 71.7762 212.24C71.8962 210.648 72.2162 209.08 72.7362 207.576C73.4722 205.52 74.6002 203.616 76.0402 201.968C79.0082 198.768 82.8402 196.496 87.0722 195.416L87.0082 195.696L85.8802 201.176L84.6882 206.936L82.3042 218.512L80.9122 225.184C80.9122 225.944 81.3762 225.744 82.0882 224.992C84.0722 222.904 88.0242 216.528 89.6882 215.2C89.7362 215.16 89.7842 215.12 89.8242 215.072L97.7682 218.768H97.7762Z" fill="#0156A2"/>
<path d="M115.92 205.4C115.688 205.448 115.448 205.48 115.224 205.512C110.12 206.12 104.968 205.912 99.832 206.024C94.696 206.136 89.736 206.552 84.688 206.928L82.648 207.088C79.352 207.312 76.04 207.504 72.728 207.568C73.464 205.512 74.592 203.608 76.032 201.96C76.52 201.848 77.016 201.776 77.512 201.736C79.4 201.584 81.288 201.44 83.184 201.328C84.08 201.264 84.976 201.216 85.872 201.168C91.88 200.824 97.88 200.608 103.888 200.392C106.952 200.288 110.008 200.184 113.064 200.352C114.128 201.968 115.008 203.688 115.92 205.4Z" fill="url(#paint36_linear_24_932)"/>
<path d="M102.112 290.768C109.64 300.592 116.752 311.632 117.416 323.96C117.544 326.176 117.792 328.936 119.864 329.736C120.856 330.008 121.912 329.992 122.896 329.688L130.544 328.112L125.776 306.784C124.576 301.4 123.36 295.968 121.096 290.944C119.504 287.416 117.416 284.136 115.696 280.656C111.36 271.88 109.512 262.12 107.704 252.496C98.752 253.08 78.424 249.096 83.488 262.744C87.504 273.632 96.384 281.032 102.104 290.776H102.112V290.768Z" fill="#231F20"/>
<path d="M122.504 332.64C122.64 333.136 122.88 333.592 123.2 334C123.872 334.648 124.824 334.912 125.728 334.696C126.616 334.48 127.464 334.104 128.232 333.608C128.664 333.408 129.032 333.096 129.296 332.704C129.552 332.024 129.528 331.28 129.224 330.616L127.968 326.632C127.928 326.392 127.784 326.176 127.576 326.048C127.304 325.992 127.016 326.072 126.808 326.264C125.416 327.192 123.328 327.304 122.048 328.224C120.768 329.144 122 331.264 122.496 332.648H122.504V332.64Z" fill="#231F20"/>
<path d="M80.0081 334.528C81.2561 335.352 82.6401 335.952 84.0881 336.312C84.3121 336.384 84.5601 336.384 84.7841 336.312C85.1201 336.192 85.2721 335.816 85.3841 335.488L87.1841 330.328C86.9681 330.952 83.3281 327.8 82.4641 328.12C80.8561 328.752 80.3201 333.088 80.0081 334.536V334.528Z" fill="#231F20"/>
<path d="M127.632 330.84C128.408 330.56 129.224 330.392 130.056 330.336C132.368 330.28 134.584 331.984 136.84 331.456C137.424 331.256 138.016 331.08 138.624 330.952C140.104 330.896 141.408 331.936 141.68 333.392C141.896 334.832 141.432 336.288 140.424 337.328C139.416 338.344 138.216 339.16 136.896 339.728C134.184 341.056 131.28 341.952 128.296 342.368C127.544 342.52 126.768 342.472 126.032 342.24C125.432 341.968 124.912 341.56 124.512 341.04C123.064 339.384 121.424 336.48 121.68 334.168C121.952 331.728 125.704 331.432 127.648 330.84H127.632Z" fill="#231F20"/>
<path d="M86.288 335.232C86.616 335.328 86.92 335.48 87.192 335.688C87.496 336.024 87.712 336.432 87.832 336.872C88.616 338.952 89.976 340.768 91.744 342.112C92.48 342.568 93.128 343.152 93.648 343.84C94.168 344.568 94.064 345.568 93.4 346.16C93 346.384 92.544 346.48 92.088 346.44C90.576 346.4 89.08 346.248 87.592 346C83.552 345.416 79.248 344.712 76.216 341.984C75.384 341.336 74.824 340.408 74.648 339.368C74.52 338.048 75.344 337 76.04 335.976C76.544 335.224 77.184 333.552 77.976 333.056C79.752 331.968 84.496 334.616 86.304 335.24H86.288V335.232Z" fill="#231F20"/>
<path d="M175.128 187.424C175.128 187.424 175.08 188.184 175.016 189.344C174.808 192.976 174.368 200.512 174.32 200.648C174.272 200.784 7.53606 208.032 7.53606 208.032L6.84006 198.296L6.66406 196.408L16.4001 196.32L175.12 187.424H175.128Z" fill="#0156A2"/>
<path d="M175.016 189.344C174.808 192.976 174.368 200.512 174.32 200.648C174.272 200.784 7.53609 208.032 7.53609 208.032L6.84009 198.296L16.4001 198.216L175.008 189.344H175.016Z" fill="url(#paint37_linear_24_932)"/>
<path d="M175.128 192.096C175.128 192.096 175.08 192.856 175.016 194.016C174.808 197.656 174.368 205.192 174.32 205.32C174.272 205.448 7.53606 212.688 7.53606 212.688L6.84006 202.952L6.66406 201.088L16.4001 201L175.12 192.104L175.128 192.096Z" fill="#0156A2"/>
<path d="M175.016 194.016C174.808 197.656 174.368 205.192 174.32 205.32C174.272 205.448 7.53609 212.688 7.53609 212.688L6.84009 202.952L16.4001 202.904L175.008 194.024L175.016 194.016Z" fill="url(#paint38_linear_24_932)"/>
<path d="M95.9601 217.544C97.7201 215.416 98.4081 213.28 99.2241 210.64C99.4641 209.848 98.6961 209.816 97.7841 211.984C98.0161 210.448 98.4801 207.968 98.4801 207.376C97.6641 206.624 97.4881 207.992 97.2561 208.552C96.8961 209.288 96.5761 210.04 96.2881 210.816C96.4241 209.496 96.4161 208.872 96.5521 207.552C96.5521 207.312 96.5521 206.976 96.3121 206.92C95.0641 207.168 95.5521 210.088 94.4401 211.2C94.6241 209.984 94.8081 207.104 94.4401 207.288C93.7441 207.288 93.4081 208.176 93.2881 208.88L92.5921 212.824C92.2001 212.704 92.1281 212.208 92.0321 211.808C91.9361 211.408 91.5121 210.976 91.1841 211.216C91.0801 211.312 91.0081 211.44 90.9921 211.576C90.9601 212.072 90.9921 212.576 91.1041 213.064C91.1921 214.024 90.8561 214.984 90.1841 215.68C92.0241 216.544 93.9681 217.176 95.9681 217.552H95.9601V217.544Z" fill="#FFB4A3"/>
<path d="M128.328 188.648C127.96 189.096 127.68 189.608 127.504 190.16C127.304 190.584 127.2 191.04 127.208 191.512C127.208 191.992 127.52 192.408 127.976 192.568C128.096 192.608 128.224 192.6 128.328 192.536C128.4 192.48 128.456 192.4 128.496 192.312C128.872 191.6 129.192 190.856 129.456 190.096C128.88 190.816 128.76 191.808 129.16 192.648C129.296 192.936 129.568 193.208 129.856 193.144C130.144 193.08 130.256 192.768 130.328 192.496C130.512 191.856 130.656 191.208 130.776 190.56C130.68 190.976 130.616 191.4 130.592 191.824C130.568 192.04 130.592 192.264 130.672 192.472C130.76 192.68 130.968 192.816 131.192 192.8C131.376 192.744 131.536 192.624 131.64 192.456C132.136 191.816 132.544 191.112 132.856 190.368C132.704 191.056 132.736 191.776 132.936 192.456C132.968 192.56 133.024 192.656 133.112 192.72C133.4 192.936 133.808 192.616 133.976 192.312C134.344 191.736 134.616 191.096 134.784 190.432C134.896 190.08 134.92 189.712 134.856 189.344C134.784 188.968 134.52 188.664 134.16 188.544C133.792 188.448 133.424 188.664 133.32 189.032C133.384 188.568 132.864 188.192 132.392 188.24C131.928 188.336 131.52 188.608 131.256 189C131.216 188.552 130.864 188.2 130.416 188.168C129.6 188.088 129.008 187.912 128.344 188.656H128.328V188.648Z" fill="#FFB4A3"/>
<path d="M136.112 208.936C135.416 213.648 133.48 218.328 129.912 221.456C126.344 224.584 121.016 225.976 116.624 224.12C112.024 222.176 109.408 217.4 107.136 212.992C107.136 212.992 107.408 209.048 110.264 211.4C113.12 213.752 117.36 228 126.112 219.68C134.872 211.352 134.904 202.472 134.904 202.472L136.4 202.408C136.504 204.592 136.4 206.776 136.112 208.936Z" fill="url(#paint39_linear_24_932)"/>
<defs>
<linearGradient id="paint0_linear_24_932" x1="348.928" y1="159.016" x2="345.152" y2="226.024" gradientUnits="userSpaceOnUse">
<stop stop-color="#231F20" stop-opacity="0"/>
<stop offset="1" stop-color="#231F20"/>
</linearGradient>
<linearGradient id="paint1_linear_24_932" x1="361.904" y1="160.8" x2="302.824" y2="227.552" gradientUnits="userSpaceOnUse">
<stop stop-color="#231F20" stop-opacity="0"/>
<stop offset="1" stop-color="#231F20"/>
</linearGradient>
<linearGradient id="paint2_linear_24_932" x1="375.288" y1="230.848" x2="342.208" y2="232.064" gradientUnits="userSpaceOnUse">
<stop stop-color="#231F20" stop-opacity="0"/>
<stop offset="1" stop-color="#231F20"/>
</linearGradient>
<linearGradient id="paint3_linear_24_932" x1="321.464" y1="236.264" x2="367.272" y2="236.264" gradientUnits="userSpaceOnUse">
<stop stop-color="#231F20" stop-opacity="0"/>
<stop offset="1" stop-color="#231F20"/>
</linearGradient>
<linearGradient id="paint4_linear_24_932" x1="197.848" y1="211.192" x2="164.88" y2="212.408" gradientUnits="userSpaceOnUse">
<stop stop-color="#231F20" stop-opacity="0"/>
<stop offset="1" stop-color="#231F20"/>
</linearGradient>
<linearGradient id="paint5_linear_24_932" x1="259.368" y1="237.64" x2="231.552" y2="183.328" gradientUnits="userSpaceOnUse">
<stop stop-color="#231F20" stop-opacity="0"/>
<stop offset="1" stop-color="#231F20"/>
</linearGradient>
<linearGradient id="paint6_linear_24_932" x1="255.752" y1="216.368" x2="254.888" y2="227.2" gradientUnits="userSpaceOnUse">
<stop stop-color="#231F20" stop-opacity="0"/>
<stop offset="1" stop-color="#231F20"/>
</linearGradient>
<linearGradient id="paint7_linear_24_932" x1="253.8" y1="154.04" x2="253.8" y2="190.48" gradientUnits="userSpaceOnUse">
<stop stop-color="#231F20" stop-opacity="0"/>
<stop offset="1" stop-color="#231F20"/>
</linearGradient>
<linearGradient id="paint8_linear_24_932" x1="253.8" y1="154.4" x2="253.8" y2="195.904" gradientUnits="userSpaceOnUse">
<stop stop-color="#231F20" stop-opacity="0"/>
<stop offset="1" stop-color="#231F20"/>
</linearGradient>
<linearGradient id="paint9_linear_24_932" x1="216.72" y1="168.056" x2="212.984" y2="190.304" gradientUnits="userSpaceOnUse">
<stop stop-color="#231F20" stop-opacity="0"/>
<stop offset="1" stop-color="#231F20"/>
</linearGradient>
<linearGradient id="paint10_linear_24_932" x1="188.736" y1="211.44" x2="208.544" y2="211.216" gradientUnits="userSpaceOnUse">
<stop stop-color="#231F20" stop-opacity="0"/>
<stop offset="1" stop-color="#231F20"/>
</linearGradient>
<linearGradient id="paint11_linear_24_932" x1="305.976" y1="234.384" x2="306.472" y2="278.296" gradientUnits="userSpaceOnUse">
<stop stop-color="#231F20" stop-opacity="0"/>
<stop offset="1" stop-color="#231F20"/>
</linearGradient>
<linearGradient id="paint12_linear_24_932" x1="218.312" y1="220.64" x2="214.664" y2="266.024" gradientUnits="userSpaceOnUse">
<stop stop-color="#231F20" stop-opacity="0"/>
<stop offset="1" stop-color="#231F20"/>
</linearGradient>
<linearGradient id="paint13_linear_24_932" x1="218.224" y1="222.488" x2="214.816" y2="264.984" gradientUnits="userSpaceOnUse">
<stop stop-color="#231F20" stop-opacity="0"/>
<stop offset="1" stop-color="#231F20"/>
</linearGradient>
<linearGradient id="paint14_linear_24_932" x1="306.48" y1="172.712" x2="304.952" y2="227.048" gradientUnits="userSpaceOnUse">
<stop stop-color="#231F20" stop-opacity="0"/>
<stop offset="1" stop-color="#231F20"/>
</linearGradient>
<linearGradient id="paint15_linear_24_932" x1="306.528" y1="175.128" x2="304.816" y2="235.928" gradientUnits="userSpaceOnUse">
<stop stop-color="#231F20" stop-opacity="0"/>
<stop offset="1" stop-color="#231F20"/>
</linearGradient>
<linearGradient id="paint16_linear_24_932" x1="212.736" y1="220.976" x2="211.192" y2="240.24" gradientUnits="userSpaceOnUse">
<stop stop-color="#231F20" stop-opacity="0"/>
<stop offset="1" stop-color="#231F20"/>
</linearGradient>
<linearGradient id="paint17_linear_24_932" x1="247.16" y1="230.68" x2="214.08" y2="231.896" gradientUnits="userSpaceOnUse">
<stop stop-color="#231F20" stop-opacity="0"/>
<stop offset="1" stop-color="#231F20"/>
</linearGradient>
<linearGradient id="paint18_linear_24_932" x1="214.776" y1="169.28" x2="209.016" y2="210.192" gradientUnits="userSpaceOnUse">
<stop stop-color="#231F20" stop-opacity="0"/>
<stop offset="1" stop-color="#231F20"/>
</linearGradient>
<linearGradient id="paint19_linear_24_932" x1="339.272" y1="133.2" x2="240.6" y2="136.488" gradientUnits="userSpaceOnUse">
<stop stop-color="#231F20" stop-opacity="0"/>
<stop offset="1" stop-color="#231F20"/>
</linearGradient>
<linearGradient id="paint20_linear_24_932" x1="348.928" y1="79.504" x2="345.152" y2="146.512" gradientUnits="userSpaceOnUse">
<stop stop-color="#231F20" stop-opacity="0"/>
<stop offset="1" stop-color="#231F20"/>
</linearGradient>
<linearGradient id="paint21_linear_24_932" x1="361.92" y1="81.296" x2="302.832" y2="148.056" gradientUnits="userSpaceOnUse">
<stop stop-color="#231F20" stop-opacity="0"/>
<stop offset="1" stop-color="#231F20"/>
</linearGradient>
<linearGradient id="paint22_linear_24_932" x1="375.288" y1="151.344" x2="342.208" y2="152.56" gradientUnits="userSpaceOnUse">
<stop stop-color="#231F20" stop-opacity="0"/>
<stop offset="1" stop-color="#231F20"/>
</linearGradient>
<linearGradient id="paint23_linear_24_932" x1="197.848" y1="131.688" x2="164.88" y2="132.904" gradientUnits="userSpaceOnUse">
<stop stop-color="#231F20" stop-opacity="0"/>
<stop offset="1" stop-color="#231F20"/>
</linearGradient>
<linearGradient id="paint24_linear_24_932" x1="253.8" y1="74.536" x2="253.8" y2="110.968" gradientUnits="userSpaceOnUse">
<stop stop-color="#231F20" stop-opacity="0"/>
<stop offset="1" stop-color="#231F20"/>
</linearGradient>
<linearGradient id="paint25_linear_24_932" x1="253.8" y1="74.896" x2="253.8" y2="116.392" gradientUnits="userSpaceOnUse">
<stop stop-color="#231F20" stop-opacity="0"/>
<stop offset="1" stop-color="#231F20"/>
</linearGradient>
<linearGradient id="paint26_linear_24_932" x1="216.72" y1="88.552" x2="212.984" y2="110.8" gradientUnits="userSpaceOnUse">
<stop stop-color="#231F20" stop-opacity="0"/>
<stop offset="1" stop-color="#231F20"/>
</linearGradient>
<linearGradient id="paint27_linear_24_932" x1="188.736" y1="131.936" x2="208.544" y2="131.712" gradientUnits="userSpaceOnUse">
<stop stop-color="#231F20" stop-opacity="0"/>
<stop offset="1" stop-color="#231F20"/>
</linearGradient>
<linearGradient id="paint28_linear_24_932" x1="306.48" y1="93.2" x2="304.952" y2="147.544" gradientUnits="userSpaceOnUse">
<stop stop-color="#231F20" stop-opacity="0"/>
<stop offset="1" stop-color="#231F20"/>
</linearGradient>
<linearGradient id="paint29_linear_24_932" x1="306.528" y1="95.616" x2="304.816" y2="156.416" gradientUnits="userSpaceOnUse">
<stop stop-color="#231F20" stop-opacity="0"/>
<stop offset="1" stop-color="#231F20"/>
</linearGradient>
<linearGradient id="paint30_linear_24_932" x1="247.16" y1="151.176" x2="214.08" y2="152.392" gradientUnits="userSpaceOnUse">
<stop stop-color="#231F20" stop-opacity="0"/>
<stop offset="1" stop-color="#231F20"/>
</linearGradient>
<linearGradient id="paint31_linear_24_932" x1="214.776" y1="89.768" x2="209.016" y2="130.688" gradientUnits="userSpaceOnUse">
<stop stop-color="#231F20" stop-opacity="0"/>
<stop offset="1" stop-color="#231F20"/>
</linearGradient>
<linearGradient id="paint32_linear_24_932" x1="100.64" y1="170.76" x2="103.432" y2="175.168" gradientUnits="userSpaceOnUse">
<stop stop-color="#231F20" stop-opacity="0"/>
<stop offset="1" stop-color="#231F20"/>
</linearGradient>
<linearGradient id="paint33_linear_24_932" x1="94.616" y1="158.744" x2="95.176" y2="193.44" gradientUnits="userSpaceOnUse">
<stop stop-color="#231F20" stop-opacity="0"/>
<stop offset="1" stop-color="#231F20"/>
</linearGradient>
<linearGradient id="paint34_linear_24_932" x1="91.144" y1="170.96" x2="91.464" y2="190.544" gradientUnits="userSpaceOnUse">
<stop stop-color="#231F20" stop-opacity="0"/>
<stop offset="1" stop-color="#231F20"/>
</linearGradient>
<linearGradient id="paint35_linear_24_932" x1="100.728" y1="234.496" x2="30.5601" y2="244.952" gradientUnits="userSpaceOnUse">
<stop stop-color="#231F20" stop-opacity="0"/>
<stop offset="1" stop-color="#231F20"/>
</linearGradient>
<linearGradient id="paint36_linear_24_932" x1="92.88" y1="199.928" x2="101.072" y2="237.208" gradientUnits="userSpaceOnUse">
<stop stop-color="#231F20" stop-opacity="0"/>
<stop offset="1" stop-color="#231F20"/>
</linearGradient>
<linearGradient id="paint37_linear_24_932" x1="90.6641" y1="192.352" x2="92.9681" y2="216.168" gradientUnits="userSpaceOnUse">
<stop stop-color="#231F20" stop-opacity="0"/>
<stop offset="1" stop-color="#231F20"/>
</linearGradient>
<linearGradient id="paint38_linear_24_932" x1="90.6641" y1="197.024" x2="92.9761" y2="220.832" gradientUnits="userSpaceOnUse">
<stop stop-color="#231F20" stop-opacity="0"/>
<stop offset="1" stop-color="#231F20"/>
</linearGradient>
<linearGradient id="paint39_linear_24_932" x1="121.656" y1="205.384" x2="124.624" y2="265.416" gradientUnits="userSpaceOnUse">
<stop stop-opacity="0"/>
<stop offset="0.49" stop-opacity="0.49"/>
<stop offset="0.97"/>
</linearGradient>
</defs>
</svg>
