<svg width="320" height="320" viewBox="0 0 320 320" fill="none" xmlns="http://www.w3.org/2000/svg">
<path opacity="0.18" d="M6.53445 245.344C5.76005 245.99 4.94725 246.682 4.65285 247.642C4.14725 249.21 5.17125 250.848 6.29125 252.051C12.1216 258.298 21.3312 259.757 29.824 260.691C68.1921 264.826 106.874 265.146 145.306 261.638C144.992 261.875 144.698 262.138 144.429 262.426C139.296 267.834 142.925 276.819 150.374 277.395C198.048 281.062 246.112 276.602 293.798 272.128C297.619 271.75 300.678 264.928 303.859 262.79C307.046 260.646 309.011 256.186 307.11 252.858C304.576 248.429 297.107 248.474 295.264 243.712C293.446 239.034 298.63 234.81 300.378 230.106C302.669 223.917 298.381 216.851 292.557 213.754C286.733 210.656 279.834 210.541 273.235 210.522C198.816 210.304 124.442 213.837 50.3808 221.12C41.7216 221.965 35.8081 222.08 28.864 226.739C20.9601 232.038 13.8305 239.27 6.52805 245.344H6.53445Z" fill="#0156A2"/>
<path d="M259.283 140.659V225.651C259.283 229.395 256.25 232.429 252.506 232.429H69.9776C66.2336 232.429 63.2 229.395 63.2 225.651V118.611C63.2 114.867 66.2336 111.834 69.9776 111.834H117.888C121.907 111.834 125.248 114.931 125.562 118.938L126.048 125.338C126.419 130.163 130.445 133.888 135.283 133.888H252.518C255.808 133.888 258.624 136.262 259.187 139.507C259.251 139.885 259.283 140.275 259.283 140.659Z" fill="#0156A2"/>
<path d="M259.283 140.659V225.651C259.283 229.395 256.25 232.429 252.506 232.429H69.9776C66.2336 232.429 63.2 229.395 63.2 225.651V118.611C63.2 114.867 66.2336 111.834 69.9776 111.834H117.888C121.907 111.834 125.248 114.931 125.562 118.938L126.048 125.338C126.419 130.163 130.445 133.888 135.283 133.888H252.518C255.808 133.888 258.624 136.262 259.187 139.507C259.251 139.885 259.283 140.275 259.283 140.659Z" fill="url(#paint0_linear_487_27256)"/>
<path d="M137.946 133.888H135.283C130.445 133.888 126.419 130.163 126.048 125.338L125.562 118.938C125.523 118.426 125.434 117.926 125.299 117.434H129.062C133.082 117.434 136.429 120.525 136.736 124.538L137.222 130.938C137.299 131.955 137.542 132.954 137.946 133.894V133.888Z" fill="#222A72"/>
<path d="M259.283 140.659V225.651C259.283 229.395 256.25 232.429 252.506 232.429H74.4896C74.4256 232.051 74.3936 231.667 74.3936 231.283V124.211C74.3936 120.467 77.4272 117.434 81.1712 117.434H125.299C125.44 117.926 125.523 118.432 125.562 118.938L126.048 125.338C126.419 130.163 130.445 133.888 135.283 133.888H137.946C139.405 137.293 142.752 139.501 146.458 139.507H259.181C259.245 139.885 259.277 140.275 259.277 140.659H259.283Z" fill="#0156A2"/>
<path d="M259.283 137.85V222.829C259.283 226.573 256.25 229.606 252.506 229.606H74.4896C74.4256 229.229 74.3936 228.845 74.3936 228.461V121.408C74.3936 117.664 77.4272 114.63 81.1712 114.63H125.299C125.434 115.123 125.523 115.629 125.562 116.134L126.048 122.534C126.419 127.36 130.438 131.091 135.283 131.091H137.946C139.405 134.496 142.752 136.704 146.458 136.71H259.181C259.245 137.088 259.277 137.466 259.277 137.85H259.283Z" fill="url(#paint1_linear_487_27256)"/>
<path d="M249.786 93.2352V133.894H135.277C130.438 133.894 126.413 130.163 126.042 125.338L125.555 118.938C125.248 114.931 121.907 111.834 117.882 111.834H84.9152V93.2352H249.779H249.786Z" fill="#0156A2"/>
<path d="M249.786 93.2352V133.894H135.277C130.438 133.894 126.413 130.163 126.042 125.338L125.555 118.938C125.248 114.931 121.907 111.834 117.882 111.834H84.9152V93.2352H249.779H249.786Z" fill="url(#paint2_linear_487_27256)"/>
<path d="M140.307 107.93V133.907H137.946V107.93C137.946 107.277 138.47 106.752 139.123 106.746C139.77 106.746 140.301 107.258 140.307 107.904L140.314 107.93H140.307Z" fill="url(#paint3_linear_487_27256)"/>
<path d="M151.712 107.93V133.907H149.35V107.93C149.35 107.277 149.882 106.746 150.534 106.746C151.187 106.746 151.712 107.277 151.718 107.93H151.712Z" fill="url(#paint4_linear_487_27256)"/>
<path d="M163.11 107.93V133.907H160.742V107.93C160.742 107.277 161.274 106.746 161.926 106.746C162.579 106.746 163.104 107.277 163.11 107.93Z" fill="url(#paint5_linear_487_27256)"/>
<path d="M174.515 107.93V133.907H172.154V107.93C172.154 107.277 172.678 106.752 173.331 106.746C173.645 106.746 173.946 106.867 174.17 107.091C174.394 107.315 174.522 107.616 174.522 107.93H174.515Z" fill="url(#paint6_linear_487_27256)"/>
<path d="M185.92 107.93V133.907H183.558V107.93C183.558 107.277 184.09 106.746 184.742 106.746C185.395 106.746 185.926 107.277 185.926 107.93H185.92Z" fill="url(#paint7_linear_487_27256)"/>
<path d="M197.318 107.93V133.907H194.957V107.93C194.957 107.283 195.475 106.752 196.122 106.746C196.122 106.746 196.122 106.746 196.128 106.746C196.442 106.746 196.742 106.867 196.966 107.091C197.19 107.315 197.318 107.616 197.318 107.93Z" fill="url(#paint8_linear_487_27256)"/>
<path d="M208.723 107.93V133.907H206.362V107.93C206.362 107.277 206.893 106.746 207.546 106.746C208.198 106.746 208.73 107.277 208.73 107.93H208.723Z" fill="url(#paint9_linear_487_27256)"/>
<path d="M220.128 107.93V133.907H217.766V107.93C217.766 107.277 218.298 106.746 218.95 106.746C219.603 106.746 220.134 107.277 220.134 107.93H220.128Z" fill="url(#paint10_linear_487_27256)"/>
<circle cx="146.24" cy="176.96" r="4.3" fill="white" stroke="white"/>
<circle cx="173.76" cy="176.96" r="4.3" fill="white" stroke="white"/>
<path d="M145.92 192H174.4" stroke="white" stroke-width="8" stroke-linecap="round"/>
<defs>
<linearGradient id="paint0_linear_487_27256" x1="303.264" y1="168.883" x2="-23.1297" y2="176.339" gradientUnits="userSpaceOnUse">
<stop/>
<stop offset="0.1" stop-opacity="0.77"/>
<stop offset="0.97" stop-opacity="0"/>
</linearGradient>
<linearGradient id="paint1_linear_487_27256" x1="205.67" y1="275.955" x2="140.378" y2="119.942" gradientUnits="userSpaceOnUse">
<stop/>
<stop offset="0.1" stop-opacity="0.77"/>
<stop offset="0.97" stop-opacity="0"/>
</linearGradient>
<linearGradient id="paint2_linear_487_27256" x1="168.416" y1="74.3104" x2="165.786" y2="171.706" gradientUnits="userSpaceOnUse">
<stop offset="0.03" stop-color="white"/>
<stop offset="0.09" stop-color="white" stop-opacity="0.84"/>
<stop offset="0.18" stop-color="white" stop-opacity="0.64"/>
<stop offset="0.28" stop-color="white" stop-opacity="0.47"/>
<stop offset="0.37" stop-color="white" stop-opacity="0.33"/>
<stop offset="0.47" stop-color="white" stop-opacity="0.21"/>
<stop offset="0.58" stop-color="white" stop-opacity="0.12"/>
<stop offset="0.69" stop-color="white" stop-opacity="0.05"/>
<stop offset="0.82" stop-color="white" stop-opacity="0"/>
<stop offset="0.98" stop-color="white" stop-opacity="0"/>
</linearGradient>
<linearGradient id="paint3_linear_487_27256" x1="155.245" y1="119.168" x2="130.074" y2="121.037" gradientUnits="userSpaceOnUse">
<stop stop-color="white"/>
<stop offset="0.97" stop-color="white" stop-opacity="0"/>
</linearGradient>
<linearGradient id="paint4_linear_487_27256" x1="166.65" y1="119.168" x2="141.478" y2="121.037" gradientUnits="userSpaceOnUse">
<stop stop-color="white"/>
<stop offset="0.97" stop-color="white" stop-opacity="0"/>
</linearGradient>
<linearGradient id="paint5_linear_487_27256" x1="178.048" y1="119.168" x2="152.877" y2="121.037" gradientUnits="userSpaceOnUse">
<stop stop-color="white"/>
<stop offset="0.97" stop-color="white" stop-opacity="0"/>
</linearGradient>
<linearGradient id="paint6_linear_487_27256" x1="189.453" y1="119.168" x2="164.282" y2="121.037" gradientUnits="userSpaceOnUse">
<stop stop-color="white"/>
<stop offset="0.97" stop-color="white" stop-opacity="0"/>
</linearGradient>
<linearGradient id="paint7_linear_487_27256" x1="200.858" y1="119.168" x2="175.68" y2="121.03" gradientUnits="userSpaceOnUse">
<stop stop-color="white"/>
<stop offset="0.97" stop-color="white" stop-opacity="0"/>
</linearGradient>
<linearGradient id="paint8_linear_487_27256" x1="212.256" y1="119.168" x2="187.085" y2="121.037" gradientUnits="userSpaceOnUse">
<stop stop-color="white"/>
<stop offset="0.97" stop-color="white" stop-opacity="0"/>
</linearGradient>
<linearGradient id="paint9_linear_487_27256" x1="223.661" y1="119.168" x2="198.49" y2="121.03" gradientUnits="userSpaceOnUse">
<stop stop-color="white"/>
<stop offset="0.97" stop-color="white" stop-opacity="0"/>
</linearGradient>
<linearGradient id="paint10_linear_487_27256" x1="235.066" y1="119.168" x2="209.888" y2="121.03" gradientUnits="userSpaceOnUse">
<stop stop-color="white"/>
<stop offset="0.97" stop-color="white" stop-opacity="0"/>
</linearGradient>
</defs>
</svg>
